<svg width="1498" height="1514" viewBox="0 0 1498 1514" fill="none" xmlns="http://www.w3.org/2000/svg">
<g clip-path="url(#clip0_102_27)">
<g clip-path="url(#clip1_102_27)">
<g clip-path="url(#clip2_102_27)">
<g clip-path="url(#clip3_102_27)">
<g clip-path="url(#clip4_102_27)">
<g clip-path="url(#clip5_102_27)">
<g clip-path="url(#clip6_102_27)">
<g clip-path="url(#clip7_102_27)">
<g clip-path="url(#clip8_102_27)">
<path d="M177.329 1079.49H0.921753V1056.34C40.6134 1056.34 63.7669 1048.99 70.3822 1034.29V479.709C63.7669 465.009 40.6134 457.658 0.921753 457.658V434.505H148.663L513.606 885.447V479.709C506.991 465.009 483.837 457.658 444.146 457.658V434.505H620.553V457.658C580.862 457.658 557.708 465.009 551.093 479.709V1079.49H541.17L107.869 531.529V1034.29C114.484 1048.99 137.638 1056.34 177.329 1056.34V1079.49ZM879.652 1079.49H703.244V1056.34C742.936 1056.34 766.089 1048.99 772.705 1034.29V479.709C766.089 465.009 742.936 457.658 703.244 457.658V434.505H864.216L1099.06 947.189L1333.9 434.505H1497.08V457.658C1457.39 457.658 1434.23 465.009 1427.62 479.709V1034.29C1434.23 1048.99 1457.39 1056.34 1497.08 1056.34V1079.49H1256.72V1056.34C1296.41 1056.34 1319.57 1048.99 1326.18 1034.29V539.247L1079.21 1079.49H1062.67L810.191 532.632V1034.29C816.807 1048.99 839.96 1056.34 879.652 1056.34V1079.49Z" fill="white"/>
</g>
</g>
</g>
</g>
</g>
</g>
</g>
<path d="M0.921753 397.779V6.56934H1497.08V397.779H1438.91V64.7369H59.0893V397.779H0.921753ZM0.921753 1116.22V1507.43H1497.08V1116.22H1438.91V1449.26H59.0893V1116.22H0.921753Z" fill="white"/>
</g>
</g>
<defs>
<clipPath id="clip0_102_27">
<rect width="1496.16" height="1513.1" fill="white" transform="translate(0.921753 0.448364)"/>
</clipPath>
<clipPath id="clip1_102_27">
<rect width="1496.16" height="1513.1" fill="white" transform="translate(0.921753 0.448364)"/>
</clipPath>
<clipPath id="clip2_102_27">
<rect width="1496.16" height="644.99" fill="white" transform="translate(0.921753 434.505)"/>
</clipPath>
<clipPath id="clip3_102_27">
<rect width="1496.16" height="644.99" fill="white" transform="translate(0.921753 434.505)"/>
</clipPath>
<clipPath id="clip4_102_27">
<rect width="1496.16" height="644.99" fill="white" transform="translate(0.921753 434.505)"/>
</clipPath>
<clipPath id="clip5_102_27">
<rect width="1496.16" height="644.99" fill="white" transform="translate(0.921753 434.505)"/>
</clipPath>
<clipPath id="clip6_102_27">
<rect width="1496.16" height="644.99" fill="white" transform="translate(0.921753 434.505)"/>
</clipPath>
<clipPath id="clip7_102_27">
<rect width="1496.16" height="644.99" fill="white" transform="translate(0.921753 434.505)"/>
</clipPath>
<clipPath id="clip8_102_27">
<rect width="1496.16" height="644.99" fill="white" transform="translate(0.921753 434.505)"/>
</clipPath>
</defs>
</svg>
